<mxfile host="app.diagrams.net" modified="2024-04-25T14:46:27.173Z" agent="Mozilla/5.0 (Linux; Android 10; K) AppleWebKit/537.36 (KHTML, like Gecko) Chrome/124.0.0.0 Mobile Safari/537.36" version="24.3.0" etag="0ap-sZyUOrAWJAo8UvbM" type="github">
  <diagram name="PÃ¡gina-1" id="nzAHBm1hbH_K1relk-ry">
    <mxGraphModel>
      <root>
        <mxCell id="0" />
        <mxCell id="1" parent="0" />
      </root>
    </mxGraphModel>
  </diagram>
</mxfile>
